<svg width="462" height="272" viewBox="0 0 462 272" fill="none" xmlns="http://www.w3.org/2000/svg">
<rect width="229" height="168" rx="50" fill="white"/>
<rect width="229" height="168" rx="50" fill="white"/>
<path d="M0 127C0 115.954 8.95431 107 20 107H123.26C134.214 107 143.13 115.812 143.259 126.766L144 190L143.262 252.237C143.132 263.19 134.216 272 123.263 272H20C8.95433 272 0 263.046 0 252V127Z" fill="white"/>
<path d="M318 127C318 115.954 326.954 107 338 107H441.26C452.214 107 461.13 115.812 461.259 126.766L462 190L461.262 252.237C461.132 263.19 452.216 272 441.263 272H338C326.954 272 318 263.046 318 252V127Z" fill="white"/>
<rect x="148" y="122" width="166" height="150" rx="20" fill="white"/>
<rect x="233" width="228" height="172" rx="50" fill="white"/>
</svg>
